<?xml version="1.0" encoding="UTF-8"?>
<svg xmlns="http://www.w3.org/2000/svg" xmlns:xlink="http://www.w3.org/1999/xlink" version="1.1" viewBox="0 0 400 100">
  <defs>
    <style>
      .cls-1 {
        fill: #010101;
      }

      .cls-2 {
        fill: #231f20;
      }

      .cls-3 {
        fill: url(#linear-gradient);
      }

      .cls-4 {
        fill: none;
        stroke: #fff;
        stroke-linecap: round;
        stroke-linejoin: round;
        stroke-width: 2px;
      }
    </style>
    <linearGradient id="linear-gradient" x1="55.9" y1="-985.9" x2="55.9" y2="-905.9" gradientTransform="translate(0 -896) scale(1 -1)" gradientUnits="userSpaceOnUse">
      <stop offset="0" stop-color="#fff" stop-opacity="0"/>
      <stop offset=".9" stop-color="#fff" stop-opacity=".1"/>
    </linearGradient>
  </defs>
  <!-- Generator: Adobe Illustrator 28.6.0, SVG Export Plug-In . SVG Version: 1.2.0 Build 709)  -->
  <g>
    <g id="Layer_1">
      <g id="Layer_1-2" data-name="Layer_1">
        <g id="Layer_1-2">
          <g id="c">
            <rect class="cls-1" x="15.9" y="9.9" width="80" height="80" rx="18.2" ry="18.2"/>
          </g>
          <g id="d">
            <rect class="cls-3" x="15.9" y="9.9" width="80" height="80" rx="18.2" ry="18.2"/>
          </g>
          <path class="cls-4" d="M38.5,67.3c-4.5-4.5-7.2-10.6-7.2-17.4,0-13.6,11-24.7,24.7-24.7s13,2.8,17.4,7.2M78.6,40.3c1.2,2.9,1.9,6.2,1.9,9.6,0,13.6-11,24.7-24.7,24.7s-6.6-.7-9.6-1.9"/>
          <path class="cls-4" d="M66.4,27.5c7.4-4.6,13.4-6.3,15.8-3.9,4.2,4.2-4.1,19.4-18.7,33.9-14.5,14.5-29.7,22.9-33.9,18.7-2.4-2.4-.7-8.3,3.8-15.7"/>
        </g>
      </g>
    </g>
    <g id="Layer_2">
      <g>
        <path class="cls-2" d="M130.9,74.6V28.1h18.2c3.5,0,6.6.6,9,1.9,2.5,1.2,4.4,3,5.7,5.3,1.3,2.3,2,4.9,2,8s-.7,5.7-2,7.9c-1.3,2.2-3.2,3.9-5.8,5.1-2.5,1.2-5.6,1.8-9.1,1.8h-12.3v-7.7h10.8c2,0,3.6-.3,4.8-.8s2.2-1.3,2.8-2.4c.6-1.1.9-2.3.9-3.9s-.3-2.9-.9-4c-.6-1.1-1.6-1.9-2.8-2.5-1.3-.6-2.9-.8-4.8-.8h-6.8v38.7h-9.5ZM156.8,74.6l-11.3-21.2h10.3l11.6,21.2h-10.6Z"/>
        <path class="cls-2" d="M187.7,75.3c-3.6,0-6.6-.7-9.2-2.2-2.6-1.5-4.6-3.5-6-6.2-1.4-2.7-2.1-5.9-2.1-9.6s.7-6.8,2.1-9.5c1.4-2.7,3.3-4.8,5.8-6.3,2.5-1.5,5.5-2.3,8.9-2.3s4.4.4,6.4,1.1c2,.7,3.7,1.8,5.2,3.3,1.5,1.5,2.7,3.3,3.5,5.5s1.3,4.8,1.3,7.8v2.6h-29.3v-5.9h24.8l-4.4,1.6c0-1.8-.3-3.4-.8-4.7-.6-1.3-1.4-2.4-2.5-3.1-1.1-.7-2.4-1.1-4-1.1s-3,.4-4.1,1.1c-1.1.8-2,1.8-2.6,3-.6,1.3-.9,2.7-.9,4.4v4.2c0,2,.3,3.7,1,5.1.7,1.4,1.6,2.4,2.8,3.1s2.6,1,4.3,1,2.1-.2,3-.5c.9-.3,1.7-.8,2.3-1.4.6-.6,1.1-1.4,1.5-2.3l8.5,1.6c-.6,1.9-1.5,3.6-2.9,5-1.4,1.4-3.1,2.6-5.2,3.4-2.1.8-4.5,1.2-7.2,1.2Z"/>
        <path class="cls-2" d="M220.4,75.3c-2.2,0-4.2-.4-6-1.2-1.8-.8-3.1-1.9-4.2-3.5-1-1.6-1.5-3.5-1.5-5.8s.4-3.6,1.1-4.9,1.7-2.4,2.9-3.2c1.2-.8,2.6-1.4,4.2-1.8,1.6-.4,3.2-.7,5-.9,2-.2,3.7-.4,4.9-.6,1.2-.2,2.1-.5,2.7-.8.6-.4.9-1,.9-1.7v-.2c0-1-.2-1.8-.6-2.5-.4-.7-1-1.2-1.9-1.6-.8-.4-1.8-.5-3-.5s-2.3.2-3.2.5c-.9.4-1.6.8-2.2,1.5-.6.6-1,1.3-1.2,2l-8.6-1.4c.6-2,1.6-3.8,3-5.2,1.4-1.4,3.1-2.5,5.2-3.2,2.1-.8,4.4-1.1,7-1.1s3.7.2,5.5.7c1.8.4,3.4,1.1,4.8,2.1s2.5,2.2,3.3,3.7c.8,1.5,1.2,3.3,1.2,5.4v23.5h-8.9v-4.8h-.3c-.6,1.1-1.3,2-2.2,2.9s-2.1,1.5-3.4,2c-1.3.5-2.8.7-4.6.7ZM223.1,68.7c1.5,0,2.8-.3,3.9-.9,1.1-.6,2-1.4,2.6-2.4s.9-2.1.9-3.3v-3.8c-.3.2-.7.4-1.2.6s-1.2.3-1.9.4-1.4.2-2,.3c-.7.1-1.3.2-1.8.2-1.1.2-2.2.4-3,.8s-1.6.9-2,1.5c-.5.6-.7,1.4-.7,2.4s.2,1.7.7,2.3c.5.6,1.1,1.1,1.9,1.4.8.3,1.7.5,2.7.5Z"/>
        <path class="cls-2" d="M257.2,28.1v46.6h-9.4V28.1h9.4Z"/>
        <path class="cls-2" d="M265.2,74.6v-34.9h8.7l.5,8.7h-.7c.5-2.1,1.3-3.9,2.4-5.2,1.1-1.4,2.3-2.4,3.7-3,1.4-.6,2.9-1,4.5-1,2.5,0,4.6.8,6.1,2.4,1.5,1.6,2.7,4.1,3.4,7.4h-1.1c.5-2.2,1.4-4.1,2.5-5.5,1.2-1.4,2.6-2.5,4.2-3.2,1.6-.7,3.3-1,5.1-1s4.1.5,5.7,1.4c1.7.9,3,2.3,4,4,1,1.8,1.5,3.9,1.5,6.5v23.6h-9.4v-21.8c0-2-.5-3.4-1.6-4.4-1.1-1-2.4-1.4-4-1.4s-2.2.3-3,.8c-.9.5-1.5,1.2-2,2.1-.5.9-.7,2-.7,3.2v21.5h-9.1v-22c0-1.7-.5-3.1-1.5-4.1-1-1-2.3-1.5-3.9-1.5s-2.1.2-3,.8c-.9.5-1.6,1.2-2.1,2.2-.5,1-.8,2.2-.8,3.5v21.1h-9.4Z"/>
      </g>
    </g>
  </g>
</svg>