<?xml version="1.0" encoding="UTF-8"?>
<svg xmlns="http://www.w3.org/2000/svg" xmlns:xlink="http://www.w3.org/1999/xlink" version="1.1" viewBox="0 0 80 80">
  <defs>
    <style>
      .cls-1 {
        fill: url(#linear-gradient);
      }

      .cls-2 {
        fill: none;
        stroke: #fff;
        stroke-linecap: round;
        stroke-linejoin: round;
        stroke-width: 2px;
      }

      .cls-3 {
        fill: #fff;
      }

      .cls-4 {
        display: none;
      }
    </style>
    <linearGradient id="linear-gradient" x1="40" y1="2" x2="40" y2="82" gradientTransform="translate(0 82) scale(1 -1)" gradientUnits="userSpaceOnUse">
      <stop offset="0" stop-color="#fff" stop-opacity="0"/>
      <stop offset=".9" stop-color="#fff" stop-opacity=".1"/>
    </linearGradient>
  </defs>
  <!-- Generator: Adobe Illustrator 28.6.0, SVG Export Plug-In . SVG Version: 1.2.0 Build 709)  -->
  <g>
    <g id="Layer_1">
      <g id="c">
        <rect width="80" height="80" rx="18.2" ry="18.2"/>
      </g>
      <g id="d">
        <rect class="cls-1" width="80" height="80" rx="18.2" ry="18.2"/>
      </g>
      <g id="f" class="cls-4">
        <path class="cls-3" d="M63.4,57.7c0,3.2-2.7,5.8-6,5.8h-24.2c-.9,0-1.6-1-1.2-1.8h0c1.6-3.9,4.2-7.1,7.5-9.5.4-.3.9-.4,1.4-.4h16.6c3.3,0,5.9,2.7,5.9,6h0Z"/>
        <path class="cls-3" d="M46.7,16.6c.9,0,1.6,1,1.2,1.8h0c-1.6,3.9-4.2,7.1-7.5,9.5-.4.3-.9.4-1.4.4h-16.5c-3.2,0-5.9-2.5-6-5.8,0-3.3,2.6-6,5.9-6h24.2Z"/>
        <path class="cls-3" d="M22.4,63.4c-.7,0-1.5-.1-2.2-.4-3-1.2-4.4-4.7-3.2-7.7,1.9-4.6,4.6-8.7,8.1-12.3,3.6-3.7,7.9-6.5,12.6-8.5,6.6-2.7,11.7-7.8,14.4-14.4,1.2-3,4.7-4.4,7.7-3.2,3,1.2,4.4,4.7,3.2,7.7-1.9,4.6-4.6,8.7-8.1,12.3-3.6,3.7-7.9,6.5-12.6,8.5-6.6,2.7-11.7,7.8-14.4,14.4-.9,2.3-3.1,3.6-5.4,3.6Z"/>
      </g>
      <path class="cls-2" d="M22.6,57.4c-4.5-4.5-7.2-10.6-7.2-17.4,0-13.6,11-24.7,24.7-24.7s13,2.8,17.4,7.2M62.7,30.4c1.2,2.9,1.9,6.2,1.9,9.6,0,13.6-11,24.7-24.7,24.7s-6.6-.7-9.6-1.9"/>
      <path class="cls-2" d="M50.5,17.6c7.4-4.6,13.4-6.3,15.8-3.9,4.2,4.2-4.1,19.4-18.7,33.9-14.5,14.5-29.7,22.9-33.9,18.7-2.4-2.4-.7-8.3,3.8-15.7"/>
    </g>
  </g>
</svg>