<?xml version="1.0" encoding="UTF-8"?>
<svg xmlns="http://www.w3.org/2000/svg" xmlns:xlink="http://www.w3.org/1999/xlink" version="1.1" viewBox="0 0 80 80">
  <defs>
    <style>
      .cls-1 {
        fill: url(#linear-gradient);
      }

      .cls-2 {
        fill: none;
        stroke: #fff;
        stroke-linecap: round;
        stroke-linejoin: round;
        stroke-width: 2px;
      }
    </style>
    <linearGradient id="linear-gradient" x1="40" y1="1078" x2="40" y2="998" gradientTransform="translate(0 -998)" gradientUnits="userSpaceOnUse">
      <stop offset="0" stop-color="#fff" stop-opacity="0"/>
      <stop offset=".9" stop-color="#fff" stop-opacity=".1"/>
    </linearGradient>
  </defs>
  <!-- Generator: Adobe Illustrator 28.6.0, SVG Export Plug-In . SVG Version: 1.2.0 Build 709)  -->
  <g>
    <g id="Layer_1">
      <g id="Layer_1-2" data-name="Layer_1">
        <g id="c">
          <rect width="80" height="80" rx="18.2" ry="18.2"/>
        </g>
        <g id="d">
          <rect class="cls-1" width="80" height="80" rx="18.2" ry="18.2"/>
        </g>
        <path class="cls-2" d="M22.6,57.4c-4.5-4.5-7.2-10.6-7.2-17.4,0-13.6,11-24.7,24.7-24.7s13,2.8,17.4,7.2M62.7,30.4c1.2,2.9,1.9,6.2,1.9,9.6,0,13.6-11,24.7-24.7,24.7s-6.6-.7-9.6-1.9"/>
        <path class="cls-2" d="M50.5,17.6c7.4-4.6,13.4-6.3,15.8-3.9,4.2,4.2-4.1,19.4-18.7,33.9-14.5,14.5-29.7,22.9-33.9,18.7-2.4-2.4-.7-8.3,3.8-15.7"/>
      </g>
    </g>
  </g>
</svg>